<svg width="166" height="93" viewBox="0 0 166 93" fill="none" xmlns="http://www.w3.org/2000/svg">
<g clip-path="url(#clip0_6602_3322)">
<path d="M7.14149 85.5945V92.7273H0V85.5945H7.14149Z" fill="#171A17"/>
<path d="M7.14149 78.4617V85.5945H0V78.4617H7.14149Z" fill="#171A17"/>
<path d="M14.2831 71.3286V78.4614H7.1416V71.3286H14.2831Z" fill="#171A17"/>
<path d="M21.4247 64.1958V71.3286H14.2832V64.1958H21.4247Z" fill="#171A17"/>
<path d="M28.5658 57.063V64.1958H21.4243V57.063H28.5658Z" fill="#171A17"/>
<path d="M35.7079 49.9302V57.063H28.5664V49.9302H35.7079Z" fill="#171A17"/>
<path d="M42.8495 42.7971V49.9299H35.708V42.7971H42.8495Z" fill="#171A17"/>
<path d="M42.8495 35.6646V42.7973H35.708V35.6646H42.8495Z" fill="#171A17"/>
<path d="M21.4247 28.5315V35.6643H14.2832V28.5315H21.4247Z" fill="#171A17"/>
<path d="M28.5658 28.5315V35.6643H21.4243V28.5315H28.5658Z" fill="#171A17"/>
<path d="M35.7079 85.5945V92.7273H28.5664V85.5945H35.7079Z" fill="#171A17"/>
<path d="M42.8495 78.4617V85.5945H35.708V78.4617H42.8495Z" fill="#171A17"/>
<path d="M42.8495 71.3286V78.4614H35.708V71.3286H42.8495Z" fill="#171A17"/>
<path d="M49.9911 64.1958V71.3286H42.8496V64.1958H49.9911Z" fill="#171A17"/>
<path d="M57.1327 57.063V64.1958H49.9912V57.063H57.1327Z" fill="#171A17"/>
<path d="M64.2743 49.9302V57.063H57.1328V49.9302H64.2743Z" fill="#171A17"/>
<path d="M71.4154 35.6646V42.7973H64.2739V35.6646H71.4154Z" fill="#171A17"/>
<path d="M71.4154 42.7971V49.9299H64.2739V42.7971H71.4154Z" fill="#171A17"/>
<path d="M64.2743 85.5945V92.7273H57.1328V85.5945H64.2743Z" fill="#171A17"/>
<path d="M64.2743 78.4617V85.5945H57.1328V78.4617H64.2743Z" fill="#171A17"/>
<path d="M71.4154 71.3286V78.4614H64.2739V71.3286H71.4154Z" fill="#171A17"/>
<path d="M78.557 64.1958V71.3286H71.4155V64.1958H78.557Z" fill="#171A17"/>
<path d="M99.9823 57.063V64.1958H92.8408V57.063H99.9823Z" fill="#171A17"/>
<path d="M99.9823 71.3286V78.4614H92.8408V71.3286H99.9823Z" fill="#171A17"/>
<path d="M92.8402 78.4617V85.5945H85.6987V78.4617H92.8402Z" fill="#171A17"/>
<path d="M107.124 57.063V64.1958H99.9824V57.063H107.124Z" fill="#171A17"/>
<path d="M114.265 35.6646V42.7973H107.124V35.6646H114.265Z" fill="#171A17"/>
<path d="M107.124 49.9302V57.063H99.9824V49.9302H107.124Z" fill="#171A17"/>
<path d="M85.6991 57.063V64.1958H78.5576V57.063H85.6991Z" fill="#171A17"/>
<path d="M78.557 49.9302V57.063H71.4155V49.9302H78.557Z" fill="#171A17"/>
<path d="M85.6991 49.9302V57.063H78.5576V49.9302H85.6991Z" fill="#171A17"/>
<path d="M71.4154 78.4617V85.5945H64.2739V78.4617H71.4154Z" fill="#171A17"/>
<path d="M78.557 71.3286V78.4614H71.4155V71.3286H78.557Z" fill="#171A17"/>
<path d="M85.6991 64.1958V71.3286H78.5576V64.1958H85.6991Z" fill="#171A17"/>
<path d="M92.8402 57.063V64.1958H85.6987V57.063H92.8402Z" fill="#171A17"/>
<path d="M99.9823 49.9302V57.063H92.8408V49.9302H99.9823Z" fill="#171A17"/>
<path d="M107.124 42.7971V49.9299H99.9824V42.7971H107.124Z" fill="#171A17"/>
<path d="M99.9823 64.1958V71.3286H92.8408V64.1958H99.9823Z" fill="#171A17"/>
<path d="M107.124 64.1958V71.3286H99.9824V64.1958H107.124Z" fill="#171A17"/>
<path d="M114.265 57.063V64.1958H107.124V57.063H114.265Z" fill="#171A17"/>
<path d="M121.407 49.9302V57.063H114.265V49.9302H121.407Z" fill="#171A17"/>
<path d="M128.548 42.7971V49.9299H121.407V42.7971H128.548Z" fill="#171A17"/>
<path d="M128.548 49.9302V57.063H121.407V49.9302H128.548Z" fill="#171A17"/>
<path d="M121.407 57.063V64.1958H114.265V57.063H121.407Z" fill="#171A17"/>
<path d="M121.407 64.1958V71.3286H114.265V64.1958H121.407Z" fill="#171A17"/>
<path d="M121.407 71.3286V78.4614H114.265V71.3286H121.407Z" fill="#171A17"/>
<path d="M114.265 78.4617V85.5945H107.124V78.4617H114.265Z" fill="#171A17"/>
<path d="M114.265 85.5945V92.7273H107.124V85.5945H114.265Z" fill="#171A17"/>
<path d="M121.407 78.4617V85.5945H114.265V78.4617H121.407Z" fill="#171A17"/>
<path d="M128.548 71.3286V78.4614H121.407V71.3286H128.548Z" fill="#171A17"/>
<path d="M135.69 64.1958V71.3286H128.548V64.1958H135.69Z" fill="#171A17"/>
<path d="M142.831 57.063V64.1958H135.69V57.063H142.831Z" fill="#171A17"/>
<path d="M149.973 49.9302V57.063H142.832V49.9302H149.973Z" fill="#171A17"/>
<path d="M71.4154 28.5315V35.6643H64.2739V28.5315H71.4154Z" fill="#171A17"/>
<path d="M78.557 35.6646V42.7973H71.4155V35.6646H78.557Z" fill="#171A17"/>
<path d="M85.6991 28.5315V35.6643H78.5576V28.5315H85.6991Z" fill="#171A17"/>
<path d="M92.8402 21.3987V28.5315H85.6987V21.3987H92.8402Z" fill="#171A17"/>
<path d="M99.9823 14.2659V21.3987H92.8408V14.2659H99.9823Z" fill="#171A17"/>
<path d="M107.124 7.13306V14.2658H99.9824V7.13306H107.124Z" fill="#171A17"/>
<path d="M49.9911 71.3286V78.4614H42.8496V71.3286H49.9911Z" fill="#171A17"/>
<path d="M57.1327 64.1958V71.3286H49.9912V64.1958H57.1327Z" fill="#171A17"/>
<path d="M64.2743 57.063V64.1958H57.1328V57.063H64.2743Z" fill="#171A17"/>
<path d="M71.4154 49.9302V57.063H64.2739V49.9302H71.4154Z" fill="#171A17"/>
<path d="M78.557 42.7971V49.9299H71.4155V42.7971H78.557Z" fill="#171A17"/>
<path d="M85.6991 35.6646V42.7973H78.5576V35.6646H85.6991Z" fill="#171A17"/>
<path d="M92.8402 28.5315V35.6643H85.6987V28.5315H92.8402Z" fill="#171A17"/>
<path d="M99.9823 21.3987V28.5315H92.8408V21.3987H99.9823Z" fill="#171A17"/>
<path d="M107.124 14.2659V21.3987H99.9824V14.2659H107.124Z" fill="#171A17"/>
<path d="M28.5658 21.3987V28.5315H21.4243V21.3987H28.5658Z" fill="#171A17"/>
<path d="M35.7079 21.3987V28.5315H28.5664V21.3987H35.7079Z" fill="#171A17"/>
<path d="M42.8495 14.2659V21.3987H35.708V14.2659H42.8495Z" fill="#171A17"/>
<path d="M49.9911 7.13306V14.2658H42.8496V7.13306H49.9911Z" fill="#171A17"/>
<path d="M57.1327 0V7.13279H49.9912V0H57.1327Z" fill="#171A17"/>
<path d="M64.2743 7.13306V14.2658H57.1328V7.13306H64.2743Z" fill="#171A17"/>
<path d="M57.1327 7.13306V14.2658H49.9912V7.13306H57.1327Z" fill="#171A17"/>
<path d="M64.2743 0V7.13279H57.1328V0H64.2743Z" fill="#171A17"/>
<path d="M49.9911 28.5315V35.6643H42.8496V28.5315H49.9911Z" fill="#171A17"/>
<path d="M57.1327 21.3987V28.5315H49.9912V21.3987H57.1327Z" fill="#171A17"/>
<path d="M64.2743 14.2659V21.3987H57.1328V14.2659H64.2743Z" fill="#171A17"/>
<path d="M49.9911 35.6646V42.7973H42.8496V35.6646H49.9911Z" fill="#171A17"/>
<path d="M57.1327 28.5315V35.6643H49.9912V28.5315H57.1327Z" fill="#171A17"/>
<path d="M64.2743 21.3987V28.5315H57.1328V21.3987H64.2743Z" fill="#171A17"/>
<path d="M14.2831 78.4617V85.5945H7.1416V78.4617H14.2831Z" fill="#171A17"/>
<path d="M21.4247 71.3286V78.4614H14.2832V71.3286H21.4247Z" fill="#171A17"/>
<path d="M28.5658 64.1958V71.3286H21.4243V64.1958H28.5658Z" fill="#171A17"/>
<path d="M35.7079 57.063V64.1958H28.5664V57.063H35.7079Z" fill="#171A17"/>
<path d="M42.8495 49.9302V57.063H35.708V49.9302H42.8495Z" fill="#171A17"/>
<path d="M49.9911 42.7971V49.9299H42.8496V42.7971H49.9911Z" fill="#171A17"/>
<path d="M57.1327 35.6646V42.7973H49.9912V35.6646H57.1327Z" fill="#171A17"/>
<path d="M64.2743 28.5315V35.6643H57.1328V28.5315H64.2743Z" fill="#171A17"/>
<path d="M71.4154 21.3987V28.5315H64.2739V21.3987H71.4154Z" fill="#171A17"/>
<path d="M78.557 14.2659V21.3987H71.4155V14.2659H78.557Z" fill="#171A17"/>
<path d="M78.557 21.3987V28.5315H71.4155V21.3987H78.557Z" fill="#171A17"/>
<path d="M85.6991 14.2659V21.3987H78.5576V14.2659H85.6991Z" fill="#171A17"/>
<path d="M92.8402 7.13306V14.2658H85.6987V7.13306H92.8402Z" fill="#171A17"/>
<path d="M85.6991 7.13306V14.2658H78.5576V7.13306H85.6991Z" fill="#171A17"/>
<path d="M92.8402 0V7.13279H85.6987V0H92.8402Z" fill="#171A17"/>
<path d="M166 23.8115H164.813V26.256C164.747 26.256 164.681 26.3221 164.615 26.3221H163.56C163.494 26.7185 163.56 27.1149 163.494 27.5113C163.098 27.5775 162.703 27.5113 162.307 27.5775C162.241 27.9735 162.307 28.3699 162.241 28.7663H159.801C159.735 29.1627 159.801 29.559 159.735 29.9554H149.249C149.183 29.7572 149.183 29.559 149.183 29.3608V28.7663H146.742C146.742 28.7001 146.677 28.6339 146.677 28.5681V27.5768C146.281 27.5106 145.885 27.5768 145.489 27.5106C145.424 27.1146 145.489 26.7182 145.424 26.3218C145.028 26.2556 144.632 26.3218 144.171 26.2556V23.8115C143.775 23.7453 143.379 23.8115 142.983 23.7453V13.2419C143.379 13.1757 143.775 13.2419 144.236 13.1757V10.7316C144.632 10.6654 145.028 10.7316 145.424 10.6654C145.489 10.4676 145.424 10.2694 145.489 10.0712V9.47661C145.555 9.47661 145.621 9.41043 145.688 9.41043H146.742C146.875 9.21224 146.808 9.01405 146.808 8.81586V8.22129C146.875 8.08928 147.006 8.15511 147.072 8.15511H149.249C149.315 7.75907 149.249 7.36269 149.315 6.96631H159.801C159.801 7.03249 159.867 7.09867 159.867 7.1645V8.15545C159.933 8.22163 160.065 8.22163 160.131 8.22163H162.307C162.373 8.61767 162.307 9.01405 162.373 9.47661C162.769 9.54279 163.164 9.47661 163.56 9.54279C163.626 9.74098 163.56 9.93917 163.56 10.137V10.7316C163.956 10.7978 164.351 10.7316 164.813 10.7978V13.2419C165.011 13.3081 165.67 13.3081 166 13.2419V23.8115ZM145.885 23.4151V25.5949C145.885 25.661 145.885 25.7934 145.951 25.9254H147.138C147.204 26.3218 147.138 26.7182 147.204 27.1146C147.336 27.1807 147.468 27.1807 147.534 27.1807H149.315C149.447 27.1807 149.513 27.1807 149.644 27.2469C149.71 27.643 149.644 28.0393 149.71 28.3695C150.04 28.4357 156.701 28.4357 159.075 28.4357H159.339V27.4448C159.339 27.3786 159.339 27.3124 159.405 27.1804H161.581C161.648 27.1804 161.779 27.1804 161.911 27.1142V26.1236C161.911 26.0574 161.911 25.9913 161.977 25.9254C162.373 25.8592 162.769 25.9254 163.164 25.8592C163.23 25.7272 163.23 25.5952 163.23 25.529V23.4151C163.428 23.3489 163.626 23.4151 163.824 23.4151H164.417C164.483 23.0849 164.483 16.4129 164.483 14.035V13.7703C164.088 13.7041 163.692 13.7703 163.23 13.7041V11.5247C163.23 11.4585 163.23 11.3262 163.164 11.26C162.769 11.1938 162.373 11.26 161.977 11.1938C161.911 10.7978 161.977 10.4014 161.911 9.93917H159.735C159.669 9.93917 159.537 9.93917 159.471 9.87299V9.27842C159.471 9.08023 159.537 8.88204 159.405 8.68385H149.974C149.908 8.68385 149.842 8.68385 149.776 8.75003C149.71 9.14641 149.776 9.54279 149.71 10.005H147.27C147.204 10.4014 147.27 10.7978 147.204 11.2603C146.808 11.3265 146.413 11.2603 146.017 11.3265V13.7703C145.621 13.8365 145.226 13.7703 144.83 13.8365C144.83 13.9023 144.83 13.9023 144.764 13.9023V23.3489L144.83 23.4151C145.028 23.4151 145.424 23.3489 145.885 23.4151Z" fill="#171A17"/>
<path d="M159.141 17.536V18.7909H157.888C157.822 19.0553 157.822 20.4426 157.888 20.7729C158.284 20.839 158.68 20.7728 159.075 20.839C159.141 20.971 159.141 21.1031 159.141 21.2351V24.2741C159.141 24.4061 159.141 24.5381 159.207 24.6705C159.471 24.7367 159.669 24.6705 159.867 24.6705C159.933 24.6043 159.933 24.472 159.933 24.4061V22.1602C159.999 22.1602 159.999 22.094 160.065 22.094H161.581V25.0669C161.186 25.1331 160.79 25.0669 160.394 25.1331C160.328 25.3309 160.394 25.5291 160.394 25.7273V26.3218C160.328 26.3218 160.262 26.388 160.196 26.388H157.426V25.1989C157.031 25.1327 156.635 25.1989 156.239 25.1989C156.173 25.0665 156.173 24.9345 156.173 24.8687V21.4336C155.976 21.3674 155.778 21.4336 155.58 21.3674H154.986V20.1779C154.92 20.1779 154.92 20.1117 154.854 20.1117H152.942V24.6043C153.338 24.6705 153.733 24.6043 154.129 24.6705C154.195 24.8687 154.195 25.8593 154.129 26.3218C154.063 26.3218 153.997 26.3219 153.931 26.388H148.655C148.589 26.1237 148.589 25.0669 148.655 24.7363C148.853 24.6701 149.051 24.7363 149.249 24.7363H149.842V12.6474C149.446 12.5812 149.051 12.6474 148.655 12.5812C148.589 12.3172 148.589 11.3262 148.655 10.9302H157.888C157.888 10.996 157.954 11.0622 157.954 11.128V12.1852C158.35 12.2513 158.746 12.1852 159.141 12.2513V13.4398C159.537 13.506 159.933 13.4398 160.328 13.506C160.394 13.77 160.394 17.3374 160.328 17.6676C160.13 17.7338 159.933 17.6676 159.735 17.7338C159.537 17.5353 159.339 17.5353 159.141 17.5353V17.536ZM152.81 12.515V18.2622L152.876 18.3284C153.206 18.3946 153.601 18.3284 153.931 18.3284H156.107C156.173 17.932 156.107 17.5356 156.173 17.0731C156.569 17.0069 156.965 17.0731 157.36 17.0731C157.426 16.809 157.426 15.6199 157.426 14.0344V13.7703C157.229 13.7042 157.031 13.7703 156.833 13.7703H156.239C156.173 13.374 156.239 12.9776 156.173 12.5812H155.91C154.591 12.4488 153.14 12.4488 152.81 12.515Z" fill="#171A17"/>
</g>
<defs>
<clipPath id="clip0_6602_3322">
<rect width="166" height="93" fill="white"/>
</clipPath>
</defs>
</svg>
