<svg width="352" height="92" viewBox="0 0 352 92" fill="none" xmlns="http://www.w3.org/2000/svg">
<g clip-path="url(#clip0_6512_65145)">
<path d="M69.2445 55.8394V69.2202H55.7964V78.4984H69.2445V91.8756H78.5693V78.4984H92.0174V69.2202H78.5693V55.8394H69.2445Z" fill="#13264A"/>
<path d="M34.3123 78.3421C35.6047 78.5161 36.8897 78.5765 38.1927 78.5268C40.4561 78.5161 42.7195 78.5055 44.9828 78.4948C44.9828 75.4045 44.9828 72.3106 44.9828 69.2167C42.5802 69.2167 40.1776 69.2167 37.775 69.2167C37.7358 69.2202 37.6965 69.2202 37.6608 69.2202C35.9115 69.1563 34.2017 68.9467 32.4881 68.5915C18.915 65.4124 9.32247 53.36 9.32247 39.489C9.15111 22.8544 22.6528 9.2817 39.3708 9.2817C53.9078 9.2817 66.3599 19.6361 68.9445 33.8695C69.1195 35.0381 69.2194 36.2032 69.2515 37.3861C69.2515 39.8442 69.2515 42.3058 69.2515 44.7639C72.361 44.7639 75.4669 44.7639 78.5763 44.7639C78.587 42.2525 78.5977 39.7412 78.612 37.2334C78.6013 36.1713 78.5335 35.1198 78.4121 34.0649C75.8346 14.5744 59.1342 0 39.3744 0C17.5084 0 -0.170124 17.7287 0.0012353 39.4854C0.0012353 59.3915 15.0023 76.1291 34.8764 78.406" fill="url(#paint0_linear_6512_65145)"/>
<path d="M121.541 57.7859C118.41 57.7859 115.704 57.0932 113.419 55.7079C111.135 54.3226 109.357 52.3618 108.089 49.822C106.822 47.2858 106.187 44.302 106.187 40.8778C106.187 38.2919 106.547 35.9652 107.265 33.8943C107.986 31.8234 109.01 30.0474 110.338 28.5697C111.67 27.092 113.28 25.9624 115.172 25.1845C117.064 24.4066 119.185 24.0159 121.534 24.0159C124.661 24.0159 127.371 24.7014 129.656 26.0725C131.94 27.4437 133.707 29.3902 134.961 31.9122C136.214 34.4342 136.838 37.4074 136.838 40.8352C136.838 43.4211 136.478 45.7549 135.76 47.8435C135.039 49.9286 134.015 51.7189 132.686 53.2143C131.355 54.7098 129.752 55.8464 127.874 56.6244C126 57.3952 123.886 57.7859 121.541 57.7859ZM121.541 53.9567C123.794 53.9567 125.718 53.4417 127.314 52.4151C128.909 51.3885 130.138 49.8931 130.998 47.9323C131.858 45.9715 132.29 43.62 132.29 40.8778C132.29 36.736 131.358 33.5285 129.495 31.2551C127.631 28.9817 124.979 27.8451 121.537 27.8451C119.285 27.8451 117.35 28.353 115.74 29.3618C114.126 30.3742 112.898 31.8554 112.056 33.7984C111.209 35.745 110.788 38.1036 110.788 40.8742C110.788 44.9841 111.727 48.1916 113.605 50.497C115.483 52.8023 118.128 53.9567 121.541 53.9567ZM133.229 63.345C133.572 63.8742 133.715 64.3502 133.65 64.7694C133.586 65.1885 133.415 65.5473 133.133 65.8421C132.851 66.137 132.49 66.3252 132.055 66.4034C131.615 66.4815 131.176 66.4353 130.741 66.2648C130.302 66.0943 129.927 65.7569 129.613 65.2596L126.56 60.3079C126.061 59.498 125.386 58.8764 124.543 58.4395C123.697 58.0026 122.68 57.7859 121.491 57.7859L125.011 56.3366C126.482 56.3366 127.646 56.5924 128.51 57.1075C129.37 57.6225 130.223 58.5461 131.069 59.8888L133.229 63.345Z" fill="#13264A"/>
<path d="M151.212 57.7859C149.366 57.7859 147.824 57.4413 146.588 56.7593C145.353 56.0737 144.436 55.0614 143.843 53.7222C143.247 52.3831 142.951 50.7029 142.951 48.6782V36.4412C142.951 35.7236 143.129 35.1873 143.49 34.8285C143.85 34.4697 144.375 34.2921 145.064 34.2921C145.753 34.2921 146.285 34.4733 146.66 34.8285C147.035 35.1873 147.224 35.7236 147.224 36.4412V48.6782C147.224 50.6106 147.613 52.035 148.398 52.9514C149.18 53.8714 150.419 54.3297 152.108 54.3297C153.985 54.3297 155.51 53.708 156.684 52.4612C157.859 51.2144 158.444 49.5663 158.444 47.5096V36.4376C158.444 35.7201 158.623 35.1837 158.983 34.8249C159.344 34.4662 159.869 34.2886 160.558 34.2886C161.247 34.2886 161.779 34.4697 162.154 34.8249C162.528 35.1837 162.718 35.7201 162.718 36.4376V55.4948C162.718 56.9582 162.029 57.69 160.651 57.69C159.962 57.69 159.437 57.5017 159.076 57.1287C158.716 56.7558 158.537 56.2123 158.537 55.4948V51.4311L159.148 52.2268C158.523 54.0348 157.513 55.4095 156.12 56.3615C154.721 57.3099 153.086 57.7859 151.212 57.7859Z" fill="#13264A"/>
<path d="M176.84 57.7859C175.277 57.7859 173.859 57.4733 172.592 56.8517C171.325 56.2301 170.339 55.3882 169.632 54.3297C168.929 53.2712 168.576 52.0883 168.576 50.7811C168.576 49.101 168.997 47.776 169.843 46.8099C170.689 45.8437 172.114 45.151 174.116 44.7319C176.119 44.3127 178.811 44.0996 182.192 44.0996H184.398V46.8099H182.284C179.875 46.8099 177.972 46.92 176.58 47.1366C175.187 47.3533 174.209 47.737 173.645 48.2804C173.081 48.8239 172.799 49.5805 172.799 50.5467C172.799 51.7615 173.227 52.7597 174.091 53.5376C174.952 54.3155 176.133 54.7062 177.636 54.7062C178.825 54.7062 179.875 54.4185 180.781 53.8431C181.688 53.2676 182.409 52.4897 182.941 51.5058C183.473 50.5254 183.741 49.3958 183.741 48.1206V42.7498C183.741 40.9133 183.366 39.5813 182.613 38.7572C181.863 37.9331 180.596 37.5211 178.811 37.5211C177.779 37.5211 176.715 37.6596 175.619 37.9402C174.523 38.2208 173.381 38.6577 172.192 39.2474C171.721 39.4676 171.314 39.5351 170.971 39.457C170.625 39.3788 170.354 39.1941 170.15 38.8957C169.947 38.6009 169.836 38.2741 169.822 37.9153C169.804 37.5566 169.882 37.2085 170.057 36.8639C170.229 36.5229 170.536 36.2743 170.971 36.118C172.349 35.4324 173.716 34.9422 175.08 34.6474C176.44 34.3526 177.715 34.2034 178.907 34.2034C180.942 34.2034 182.616 34.5231 183.93 35.1624C185.244 35.8018 186.229 36.7822 186.886 38.1036C187.543 39.4285 187.871 41.1158 187.871 43.1725V55.5055C187.871 56.223 187.7 56.7665 187.354 57.1394C187.007 57.5124 186.508 57.7007 185.851 57.7007C185.226 57.7007 184.73 57.5124 184.373 57.1394C184.012 56.7665 183.834 56.223 183.834 55.5055V52.1878H184.255C184.005 53.3387 183.534 54.3368 182.845 55.1787C182.156 56.0205 181.303 56.667 180.285 57.1181C179.275 57.5586 178.125 57.7859 176.84 57.7859Z" fill="#13264A"/>
<path d="M203.318 57.7858C201.316 57.7858 199.556 57.3099 198.038 56.3614C196.521 55.413 195.339 54.0419 194.493 52.2516C193.647 50.4614 193.226 48.3656 193.226 45.9679C193.226 43.5383 193.64 41.4461 194.468 39.6842C195.297 37.9259 196.471 36.569 197.988 35.6206C199.506 34.6722 201.284 34.1962 203.318 34.1962C205.353 34.1962 207.106 34.7041 208.577 35.7129C210.048 36.7253 211.033 38.0716 211.533 39.7553H211.015V26.2572C211.015 25.5397 211.194 25.0033 211.554 24.6445C211.915 24.2858 212.44 24.1082 213.129 24.1082C213.818 24.1082 214.35 24.2893 214.725 24.6445C215.099 25.0033 215.289 25.5397 215.289 26.2572V55.4983C215.289 56.2158 215.099 56.7593 214.725 57.1322C214.35 57.5052 213.818 57.6935 213.129 57.6935C212.472 57.6935 211.954 57.5052 211.579 57.1322C211.205 56.7593 211.015 56.2158 211.015 55.4983V51.2464L211.533 52.0882C211.065 53.8323 210.084 55.2177 208.598 56.2442C207.113 57.2708 205.353 57.7858 203.318 57.7858ZM204.304 54.422C205.682 54.422 206.878 54.0952 207.895 53.4416C208.913 52.788 209.694 51.8396 210.244 50.5928C210.79 49.3495 211.065 47.8079 211.065 45.9679C211.065 43.2292 210.455 41.1406 209.234 39.7091C208.013 38.2776 206.371 37.56 204.304 37.56C202.958 37.56 201.776 37.8797 200.759 38.5191C199.741 39.1585 198.952 40.0998 198.388 41.3466C197.824 42.5934 197.542 44.135 197.542 45.9715C197.542 48.7137 198.16 50.8059 199.395 52.2552C200.634 53.6973 202.269 54.422 204.304 54.422Z" fill="#13264A"/>
<path d="M224.349 57.6935C223.628 57.6935 223.082 57.5052 222.707 57.1323C222.332 56.7593 222.143 56.2158 222.143 55.4983V36.4411C222.143 35.7236 222.332 35.1872 222.707 34.8285C223.082 34.4697 223.6 34.2921 224.256 34.2921C224.913 34.2921 225.42 34.4733 225.781 34.8285C226.141 35.1872 226.32 35.7236 226.32 36.4411V40.0394H225.849C226.349 38.171 227.287 36.7537 228.665 35.7876C230.043 34.8214 231.778 34.2779 233.878 34.1536C234.377 34.1216 234.784 34.2388 235.099 34.5052C235.413 34.7716 235.584 35.2157 235.616 35.8373C235.648 36.4305 235.505 36.9029 235.195 37.2617C234.881 37.6204 234.395 37.83 233.738 37.894L232.892 37.9401C230.825 38.1568 229.237 38.8282 228.126 39.9471C227.016 41.0696 226.459 42.6112 226.459 44.572V55.5018C226.459 56.2194 226.277 56.7628 225.92 57.1358C225.563 57.5052 225.038 57.6935 224.349 57.6935Z" fill="#13264A"/>
<path d="M246.555 57.7859C244.991 57.7859 243.574 57.4733 242.306 56.8517C241.039 56.2301 240.054 55.3882 239.347 54.3297C238.643 53.2712 238.29 52.0883 238.29 50.7811C238.29 49.101 238.711 47.776 239.557 46.8099C240.403 45.8437 241.828 45.151 243.831 44.7319C245.833 44.3127 248.525 44.0996 251.906 44.0996H254.112V46.8099H251.999C249.589 46.8099 247.686 46.92 246.294 47.1366C244.902 47.3533 243.923 47.737 243.359 48.2804C242.795 48.8239 242.513 49.5805 242.513 50.5467C242.513 51.7615 242.942 52.7597 243.806 53.5376C244.666 54.3155 245.848 54.7062 247.351 54.7062C248.539 54.7062 249.589 54.4185 250.496 53.8431C251.403 53.2676 252.124 52.4897 252.656 51.5058C253.188 50.5254 253.455 49.3958 253.455 48.1206V42.7498C253.455 40.9133 253.08 39.5813 252.327 38.7572C251.578 37.9331 250.31 37.5211 248.525 37.5211C247.493 37.5211 246.43 37.6596 245.334 37.9402C244.238 38.2208 243.095 38.6577 241.906 39.2474C241.435 39.4676 241.028 39.5351 240.686 39.457C240.339 39.3788 240.068 39.1941 239.864 38.8957C239.661 38.6009 239.55 38.2741 239.536 37.9153C239.518 37.5566 239.597 37.2085 239.772 36.8639C239.943 36.5229 240.25 36.2743 240.686 36.118C242.064 35.4324 243.431 34.9422 244.795 34.6474C246.155 34.3526 247.429 34.2034 248.622 34.2034C250.656 34.2034 252.331 34.5231 253.645 35.1624C254.958 35.8018 255.944 36.7822 256.6 38.1036C257.257 39.4285 257.586 41.1158 257.586 43.1725V55.5055C257.586 56.223 257.414 56.7665 257.068 57.1394C256.722 57.5124 256.222 57.7007 255.565 57.7007C254.94 57.7007 254.444 57.5124 254.087 57.1394C253.727 56.7665 253.548 56.223 253.548 55.5055V52.1878H253.969C253.72 53.3387 253.248 54.3368 252.559 55.1787C251.87 56.0205 251.017 56.667 250 57.1181C248.989 57.5586 247.84 57.7859 246.555 57.7859Z" fill="#13264A"/>
<path d="M267.025 57.6936C266.336 57.6936 265.804 57.4982 265.429 57.111C265.054 56.7239 264.865 56.1697 264.865 55.4522V26.6303C264.865 25.9127 265.062 25.3693 265.451 24.9963C265.843 24.6233 266.382 24.4351 267.071 24.4351H278.246C281.812 24.4351 284.561 25.3089 286.485 27.0494C288.409 28.7935 289.373 31.2374 289.373 34.3846C289.373 37.5602 288.409 40.0218 286.485 41.7659C284.561 43.51 281.815 44.3802 278.246 44.3802H269.231V55.4522C269.231 56.1697 269.053 56.7203 268.692 57.111C268.332 57.4982 267.775 57.6936 267.025 57.6936ZM269.231 40.8778H277.681C280.123 40.8778 281.962 40.3273 283.197 39.219C284.432 38.1143 285.05 36.5016 285.05 34.3846C285.05 32.2675 284.432 30.6726 283.197 29.5963C281.962 28.5236 280.123 27.9836 277.681 27.9836H269.231V40.8778Z" fill="#13264A"/>
<path d="M301.389 57.7858C299.04 57.7858 297.259 57.0932 296.038 55.7078C294.817 54.3225 294.207 52.3227 294.207 49.7048V26.2572C294.207 25.5397 294.396 25.0033 294.771 24.6445C295.145 24.2858 295.663 24.1082 296.32 24.1082C297.009 24.1082 297.541 24.2893 297.916 24.6445C298.291 25.0033 298.48 25.5397 298.48 26.2572V49.378C298.48 50.9977 298.815 52.2055 299.49 52.9976C300.161 53.7932 301.125 54.1875 302.378 54.1875C302.66 54.1875 302.91 54.1804 303.128 54.1627C303.346 54.1485 303.567 54.1236 303.785 54.0916C304.128 54.0597 304.377 54.1556 304.535 54.3722C304.692 54.5889 304.77 55.0258 304.77 55.6794C304.77 56.2726 304.638 56.7309 304.37 57.0577C304.103 57.3844 303.674 57.594 303.078 57.6899C302.796 57.7219 302.514 57.7432 302.232 57.761C301.95 57.7787 301.671 57.7858 301.389 57.7858Z" fill="#13264A"/>
<path d="M316.505 57.7859C314.659 57.7859 313.117 57.4413 311.882 56.7593C310.647 56.0737 309.729 55.0614 309.137 53.7222C308.54 52.3831 308.244 50.7029 308.244 48.6782V36.4412C308.244 35.7236 308.423 35.1873 308.783 34.8285C309.144 34.4697 309.669 34.2921 310.358 34.2921C311.047 34.2921 311.578 34.4733 311.953 34.8285C312.328 35.1873 312.517 35.7236 312.517 36.4412V48.6782C312.517 50.6106 312.907 52.035 313.692 52.9514C314.474 53.8714 315.713 54.3297 317.401 54.3297C319.279 54.3297 320.803 53.708 321.978 52.4612C323.152 51.2144 323.738 49.5663 323.738 47.5096V36.4376C323.738 35.7201 323.916 35.1837 324.277 34.8249C324.637 34.4662 325.162 34.2886 325.851 34.2886C326.54 34.2886 327.072 34.4697 327.447 34.8249C327.822 35.1837 328.011 35.7201 328.011 36.4376V55.4948C328.011 56.9582 327.322 57.69 325.944 57.69C325.255 57.69 324.73 57.5017 324.37 57.1287C324.009 56.7558 323.831 56.2123 323.831 55.4948V51.4311L324.441 52.2268C323.816 54.0348 322.806 55.4095 321.414 56.3615C320.018 57.3099 318.383 57.7859 316.505 57.7859Z" fill="#13264A"/>
<path d="M342.748 57.7859C341.338 57.7859 339.924 57.6225 338.5 57.2958C337.075 56.969 335.736 56.4006 334.487 55.5907C334.141 55.3741 333.902 55.1005 333.759 54.7737C333.62 54.4469 333.57 54.1202 333.619 53.7934C333.666 53.4666 333.798 53.1788 334.019 52.9302C334.237 52.6815 334.512 52.5324 334.84 52.4862C335.169 52.44 335.522 52.5252 335.897 52.7419C337.118 53.4275 338.3 53.9106 339.442 54.1912C340.585 54.4718 341.72 54.6103 342.844 54.6103C344.565 54.6103 345.865 54.2978 346.743 53.6761C347.617 53.0545 348.056 52.2269 348.056 51.2003C348.056 50.33 347.767 49.6516 347.189 49.1685C346.611 48.6854 345.711 48.3195 344.49 48.0709L340.124 47.1829C338.182 46.7459 336.722 46.0213 335.733 45.009C334.748 43.9966 334.255 42.6965 334.255 41.1087C334.255 39.7056 334.637 38.4873 335.404 37.4429C336.172 36.3986 337.243 35.5994 338.621 35.0381C339.999 34.4769 341.577 34.1963 343.362 34.1963C344.74 34.1963 346.047 34.3774 347.282 34.7327C348.517 35.0914 349.638 35.6278 350.638 36.3453C351.012 36.562 351.255 36.8355 351.366 37.1623C351.477 37.4891 351.491 37.8159 351.412 38.1427C351.334 38.4695 351.184 38.743 350.966 38.9597C350.748 39.1799 350.466 39.3113 350.12 39.3575C349.777 39.4037 349.399 39.3185 348.992 39.1018C348.085 38.4802 347.153 38.0361 346.197 37.7697C345.243 37.5069 344.294 37.3719 343.355 37.3719C341.666 37.3719 340.388 37.6987 339.528 38.3523C338.667 39.0059 338.235 39.8619 338.235 40.9205C338.235 41.7303 338.493 42.4017 339.01 42.9274C339.528 43.4567 340.349 43.8474 341.473 44.0961L345.84 44.9841C347.874 45.421 349.41 46.1137 350.441 47.0621C351.473 48.0105 351.991 49.2964 351.991 50.9161C351.991 53.0332 351.152 54.7063 349.477 55.9388C347.81 57.1714 345.565 57.7859 342.748 57.7859Z" fill="#13264A"/>
</g>
<defs>
<linearGradient id="paint0_linear_6512_65145" x1="-0.00733267" y1="39.2744" x2="78.6042" y2="39.2744" gradientUnits="userSpaceOnUse">
<stop stop-color="#B4D6F0"/>
<stop offset="0.1124" stop-color="#4C97D2"/>
<stop offset="0.3708" stop-color="#1A6BB2"/>
<stop offset="0.5169" stop-color="#1A6BB2"/>
<stop offset="1" stop-color="#122649"/>
</linearGradient>
<clipPath id="clip0_6512_65145">
<rect width="352" height="92" fill="white"/>
</clipPath>
</defs>
</svg>
