<svg width="62" height="22" viewBox="0 0 62 22" fill="none" xmlns="http://www.w3.org/2000/svg">
<g filter="url(#filter0_dd_6339_31096)">
<path fill-rule="evenodd" clip-rule="evenodd" d="M14.0258 4.45961L7.51652 0.701467C7.44727 0.661485 7.36195 0.661484 7.29269 0.701468L0.783394 4.45961C0.714141 4.4996 0.671481 4.57349 0.671481 4.65345V12.1697C0.671481 12.2497 0.714142 12.3236 0.783395 12.3636L7.2927 16.1217C7.36195 16.1617 7.44727 16.1617 7.51652 16.1217L14.0258 12.3636C14.0951 12.3236 14.1377 12.2497 14.1377 12.1697V4.65345C14.1377 4.57349 14.0951 4.4996 14.0258 4.45961ZM7.85226 0.119948C7.57525 -0.0399831 7.23396 -0.0399825 6.95695 0.119949L0.447654 3.87809C0.170645 4.03803 0 4.33359 0 4.65345V12.1697C0 12.4896 0.170646 12.7852 0.447655 12.9451L6.95696 16.7033C7.23396 16.8632 7.57525 16.8632 7.85226 16.7033L14.3616 12.9451C14.6386 12.7852 14.8092 12.4896 14.8092 12.1697V4.65345C14.8092 4.33359 14.6386 4.03802 14.3616 3.87809L7.85226 0.119948Z" fill="white"/>
<path d="M11.2846 11.0526V9.52647L10.196 9.4701V8.41495L7.94528 9.41326L7.42893 9.39463L6.91258 9.41326L4.66137 8.41495V9.4701L3.57327 9.52647V11.0526L2.48468 10.2611L3.09322 5.30682L5.04923 5.92826L7.42893 5.83416L9.80863 5.92826L11.7642 5.30682L12.3732 10.2611L11.2846 11.0526Z" fill="white"/>
<path d="M7.4347 9.96927V10.9958H7.21354L6.77075 10.2989L7.02917 9.96927H7.4347Z" fill="white"/>
<path d="M7.39801 9.96927V10.9958H7.61964L8.06196 10.2989L7.80402 9.96927H7.39801Z" fill="white"/>
<path d="M9.15381 12.2014L9.56889 11.5804L9.15381 10.243L9.17196 10.2344C9.23557 10.3387 9.33353 10.4175 9.449 10.4574C9.50297 10.4759 9.55963 10.4853 9.61666 10.4851C9.68418 10.4855 9.7511 10.4724 9.81346 10.4464C9.90883 10.4072 9.99043 10.3406 10.0479 10.255C10.1054 10.1693 10.1362 10.0686 10.1364 9.96545C10.1363 9.9069 10.1264 9.84878 10.1072 9.79349C10.1106 9.80209 10.1129 9.81116 10.1153 9.81976L10.1301 9.88472L10.4779 11.4586L9.15381 12.2014Z" fill="white"/>
<path d="M10.1382 9.98215C10.138 10.0856 10.107 10.1866 10.049 10.2723C9.99109 10.358 9.90889 10.4245 9.81295 10.4632C9.69662 10.51 9.56734 10.5138 9.4485 10.4737C9.33223 10.4348 9.23343 10.3562 9.16955 10.2515C9.12063 10.1704 9.09487 10.0774 9.09503 9.98262C9.09509 9.96155 9.09636 9.9405 9.09885 9.91957C9.10301 9.88713 9.11021 9.85514 9.12035 9.82404C9.13141 9.79091 9.14565 9.75891 9.16286 9.72851C9.21321 9.64265 9.28691 9.57286 9.37538 9.52726C9.46385 9.48166 9.56346 9.46213 9.6626 9.47093C9.76174 9.47974 9.85634 9.51653 9.93539 9.57701C10.0144 9.6375 10.0747 9.71919 10.1091 9.81258C10.112 9.82165 10.1148 9.83025 10.1172 9.83933L10.1316 9.90429C10.136 9.93 10.1383 9.95605 10.1382 9.98215Z" fill="white"/>
<path d="M5.71942 12.195L5.30434 11.574L5.71942 10.2366L5.70127 10.228C5.63766 10.3323 5.5397 10.4111 5.42423 10.451C5.37026 10.4695 5.3136 10.4789 5.25657 10.4787C5.18905 10.4791 5.12213 10.4659 5.05977 10.44C4.9644 10.4008 4.8828 10.3342 4.82533 10.2485C4.76785 10.1629 4.73706 10.0622 4.73688 9.95904C4.73694 9.90049 4.74679 9.84237 4.76601 9.78708C4.76267 9.79568 4.76028 9.80475 4.75789 9.81335L4.74309 9.87831L4.39535 11.4522L5.71942 12.195Z" fill="white"/>
<path d="M4.73493 9.97574C4.73512 10.0792 4.76618 10.1802 4.82413 10.2659C4.88208 10.3516 4.96428 10.418 5.06021 10.4567C5.17655 10.5036 5.30582 10.5074 5.42467 10.4672C5.54094 10.4284 5.63974 10.3498 5.70362 10.2451C5.75253 10.164 5.7783 10.071 5.77814 9.97622C5.77808 9.95514 5.77681 9.93409 5.77432 9.91317C5.77016 9.88072 5.76296 9.84873 5.75282 9.81763C5.74176 9.7845 5.72752 9.7525 5.71031 9.7221C5.65996 9.63624 5.58626 9.56645 5.49779 9.52085C5.40932 9.47525 5.30971 9.45572 5.21057 9.46453C5.11143 9.47333 5.01683 9.51012 4.93778 9.5706C4.85873 9.63109 4.79849 9.71278 4.76407 9.80617C4.7612 9.81524 4.75833 9.82384 4.75595 9.83292L4.74162 9.89788C4.73713 9.92359 4.73489 9.94964 4.73493 9.97574Z" fill="white"/>
</g>
<path d="M58.1159 3.94576H59.0399V4.59595L59.057 4.61306C59.2053 4.36781 59.3992 4.17675 59.6387 4.03987C59.8783 3.89728 60.1435 3.82599 60.4343 3.82599C60.9191 3.82599 61.3013 3.95146 61.5807 4.20242C61.8602 4.45337 61.9999 4.82979 61.9999 5.33169V8.36877H61.0247V5.58835C61.0132 5.24044 60.9391 4.98949 60.8022 4.8355C60.6653 4.6758 60.4515 4.59595 60.1606 4.59595C59.9952 4.59595 59.8469 4.62732 59.7157 4.69006C59.5845 4.74709 59.4733 4.82979 59.3821 4.93816C59.2908 5.04082 59.2195 5.16344 59.1682 5.30603C59.1169 5.44861 59.0912 5.59976 59.0912 5.75945V8.36877H58.1159V3.94576Z" fill="white"/>
<path d="M55.0723 8.48854C54.7187 8.48854 54.4022 8.43151 54.1227 8.31744C53.8489 8.19767 53.6151 8.03512 53.4212 7.8298C53.233 7.62447 53.0875 7.37923 52.9849 7.09405C52.8879 6.80888 52.8394 6.49519 52.8394 6.15299C52.8394 5.81649 52.8879 5.50565 52.9849 5.22048C53.0875 4.93531 53.233 4.69006 53.4212 4.48473C53.6151 4.27941 53.8489 4.11972 54.1227 4.00565C54.4022 3.88587 54.7187 3.82599 55.0723 3.82599C55.4259 3.82599 55.7396 3.88587 56.0134 4.00565C56.2928 4.11972 56.5267 4.27941 56.7149 4.48473C56.9088 4.69006 57.0542 4.93531 57.1512 5.22048C57.2539 5.50565 57.3052 5.81649 57.3052 6.15299C57.3052 6.49519 57.2539 6.80888 57.1512 7.09405C57.0542 7.37923 56.9088 7.62447 56.7149 7.8298C56.5267 8.03512 56.2928 8.19767 56.0134 8.31744C55.7396 8.43151 55.4259 8.48854 55.0723 8.48854ZM55.0723 7.71858C55.289 7.71858 55.4773 7.67295 55.6369 7.5817C55.7966 7.49044 55.9278 7.37067 56.0305 7.22238C56.1331 7.07409 56.2073 6.90869 56.2529 6.72618C56.3043 6.53797 56.3299 6.3469 56.3299 6.15299C56.3299 5.96477 56.3043 5.77656 56.2529 5.58835C56.2073 5.40014 56.1331 5.23474 56.0305 5.09215C55.9278 4.94386 55.7966 4.82409 55.6369 4.73283C55.4773 4.64158 55.289 4.59595 55.0723 4.59595C54.8556 4.59595 54.6674 4.64158 54.5077 4.73283C54.348 4.82409 54.2168 4.94386 54.1141 5.09215C54.0115 5.23474 53.9345 5.40014 53.8831 5.58835C53.8375 5.77656 53.8147 5.96477 53.8147 6.15299C53.8147 6.3469 53.8375 6.53797 53.8831 6.72618C53.9345 6.90869 54.0115 7.07409 54.1141 7.22238C54.2168 7.37067 54.348 7.49044 54.5077 7.5817C54.6674 7.67295 54.8556 7.71858 55.0723 7.71858Z" fill="white"/>
<path d="M50.1874 3.94576H51.1028V4.80128H51.1199C51.1484 4.6815 51.2026 4.56458 51.2824 4.45051C51.368 4.33645 51.4678 4.23378 51.5819 4.14253C51.7016 4.04557 51.8328 3.96857 51.9754 3.91154C52.118 3.85451 52.2634 3.82599 52.4117 3.82599C52.5258 3.82599 52.6028 3.82884 52.6427 3.83454C52.6883 3.84025 52.734 3.84595 52.7796 3.85165V4.79272C52.7111 4.78131 52.6399 4.77276 52.5657 4.76705C52.4973 4.75565 52.4288 4.74994 52.3604 4.74994C52.195 4.74994 52.0381 4.78416 51.8899 4.85261C51.7473 4.91534 51.6218 5.0123 51.5134 5.14348C51.4051 5.26896 51.3195 5.4258 51.2568 5.61401C51.194 5.80223 51.1627 6.01896 51.1627 6.26421V8.36877H50.1874V3.94576Z" fill="white"/>
<path d="M49.1238 8.36878H48.1999V7.76992H48.1828C48.0516 8.02657 47.8605 8.21193 47.6096 8.326C47.3586 8.43437 47.0934 8.48855 46.8139 8.48855C46.466 8.48855 46.1609 8.42867 45.8985 8.30889C45.6419 8.18342 45.428 8.01517 45.2569 7.80414C45.0858 7.59311 44.9575 7.34501 44.8719 7.05984C44.7864 6.76897 44.7436 6.45813 44.7436 6.12733C44.7436 5.72809 44.7978 5.38303 44.9061 5.09216C45.0145 4.80128 45.1571 4.56174 45.3339 4.37353C45.5164 4.18531 45.7217 4.04843 45.9499 3.96288C46.1837 3.87163 46.4204 3.826 46.6599 3.826C46.7968 3.826 46.9366 3.84026 47.0791 3.86877C47.2217 3.89159 47.3586 3.93151 47.4898 3.98855C47.621 4.04558 47.7407 4.11972 47.8491 4.21098C47.9632 4.29653 48.0573 4.39919 48.1314 4.51896H48.1485V2.26041H49.1238V8.36878ZM45.7189 6.20433C45.7189 6.39254 45.7417 6.5779 45.7873 6.76041C45.8387 6.94292 45.9128 7.10547 46.0098 7.24805C46.1124 7.39064 46.2407 7.50471 46.3947 7.59026C46.5487 7.67581 46.7312 7.71859 46.9423 7.71859C47.159 7.71859 47.3444 7.67296 47.4983 7.58171C47.658 7.49045 47.7864 7.37068 47.8833 7.22239C47.986 7.0741 48.0601 6.9087 48.1058 6.72619C48.1571 6.53798 48.1828 6.34691 48.1828 6.153C48.1828 5.6625 48.0715 5.28037 47.8491 5.00661C47.6324 4.73284 47.3358 4.59596 46.9594 4.59596C46.7312 4.59596 46.5373 4.64444 46.3776 4.7414C46.2236 4.83265 46.0953 4.95528 45.9926 5.10927C45.8957 5.25756 45.8244 5.42866 45.7788 5.62258C45.7388 5.81079 45.7189 6.00471 45.7189 6.20433Z" fill="white"/>
<path d="M40.0449 3.94576H40.9689V4.59595L40.986 4.61306C41.1343 4.36781 41.3282 4.17675 41.5677 4.03987C41.8073 3.89728 42.0725 3.82599 42.3634 3.82599C42.8482 3.82599 43.2303 3.95146 43.5098 4.20242C43.7892 4.45337 43.929 4.82979 43.929 5.33169V8.36877H42.9537V5.58835C42.9423 5.24044 42.8681 4.98949 42.7312 4.8355C42.5944 4.6758 42.3805 4.59595 42.0896 4.59595C41.9242 4.59595 41.7759 4.62732 41.6447 4.69006C41.5136 4.74709 41.4023 4.82979 41.3111 4.93816C41.2198 5.04082 41.1485 5.16344 41.0972 5.30603C41.0459 5.44861 41.0202 5.59976 41.0202 5.75945V8.36877H40.0449V3.94576Z" fill="white"/>
<path d="M38.3282 5.76801C38.3168 5.61401 38.2825 5.46572 38.2255 5.32314C38.1742 5.18055 38.1 5.05793 38.0031 4.95527C37.9118 4.8469 37.7977 4.76135 37.6609 4.69861C37.5297 4.63017 37.3814 4.59595 37.216 4.59595C37.0449 4.59595 36.888 4.62732 36.7455 4.69006C36.6086 4.74709 36.4888 4.82979 36.3861 4.93816C36.2892 5.04082 36.2093 5.16344 36.1466 5.30603C36.0896 5.44861 36.0582 5.60261 36.0525 5.76801H38.3282ZM36.0525 6.40964C36.0525 6.58075 36.0753 6.74614 36.1209 6.90584C36.1723 7.06554 36.2464 7.20527 36.3434 7.32504C36.4403 7.44481 36.563 7.54177 36.7112 7.61592C36.8595 7.68436 37.0363 7.71858 37.2417 7.71858C37.5268 7.71858 37.755 7.65869 37.9261 7.53892C38.1029 7.41345 38.2341 7.22808 38.3196 6.98284H39.2436C39.1922 7.22238 39.1038 7.43626 38.9784 7.62447C38.8529 7.81269 38.7017 7.97238 38.5249 8.10356C38.3481 8.22904 38.1485 8.32314 37.9261 8.38588C37.7093 8.45432 37.4812 8.48854 37.2417 8.48854C36.8938 8.48854 36.5858 8.43151 36.3177 8.31744C36.0496 8.20337 35.8215 8.04367 35.6333 7.83835C35.4508 7.63303 35.311 7.38778 35.2141 7.10261C35.1228 6.81744 35.0772 6.50375 35.0772 6.16154C35.0772 5.84785 35.1257 5.55128 35.2226 5.27181C35.3253 4.98664 35.4679 4.73854 35.6504 4.52751C35.8386 4.31078 36.0639 4.13968 36.3263 4.0142C36.5886 3.88873 36.8852 3.82599 37.216 3.82599C37.5639 3.82599 37.8747 3.90013 38.1485 4.04842C38.428 4.19101 38.659 4.38207 38.8415 4.62162C39.024 4.86116 39.1552 5.13778 39.235 5.45147C39.3206 5.75945 39.3434 6.07884 39.3034 6.40964H36.0525Z" fill="white"/>
<path d="M34.2275 8.36878H33.3035V7.76992H33.2864C33.1552 8.02657 32.9642 8.21193 32.7132 8.326C32.4623 8.43437 32.197 8.48855 31.9176 8.48855C31.5697 8.48855 31.2645 8.42867 31.0022 8.30889C30.7455 8.18342 30.5316 8.01517 30.3605 7.80414C30.1894 7.59311 30.0611 7.34501 29.9756 7.05984C29.89 6.76897 29.8472 6.45813 29.8472 6.12733C29.8472 5.72809 29.9014 5.38303 30.0098 5.09216C30.1181 4.80128 30.2607 4.56174 30.4375 4.37353C30.62 4.18531 30.8254 4.04843 31.0535 3.96288C31.2873 3.87163 31.524 3.826 31.7636 3.826C31.9005 3.826 32.0402 3.84026 32.1828 3.86877C32.3254 3.89159 32.4623 3.93151 32.5934 3.98855C32.7246 4.04558 32.8444 4.11972 32.9527 4.21098C33.0668 4.29653 33.1609 4.39919 33.2351 4.51896H33.2522V2.26041H34.2275V8.36878ZM30.8225 6.20433C30.8225 6.39254 30.8453 6.5779 30.891 6.76041C30.9423 6.94292 31.0164 7.10547 31.1134 7.24805C31.2161 7.39064 31.3444 7.50471 31.4984 7.59026C31.6524 7.67581 31.8349 7.71859 32.0459 7.71859C32.2626 7.71859 32.448 7.67296 32.602 7.58171C32.7617 7.49045 32.89 7.37068 32.987 7.22239C33.0896 7.0741 33.1638 6.9087 33.2094 6.72619C33.2607 6.53798 33.2864 6.34691 33.2864 6.153C33.2864 5.6625 33.1752 5.28037 32.9527 5.00661C32.736 4.73284 32.4394 4.59596 32.063 4.59596C31.8349 4.59596 31.641 4.64444 31.4813 4.7414C31.3273 4.83265 31.1989 4.95528 31.0963 5.10927C30.9993 5.25756 30.928 5.42866 30.8824 5.62258C30.8425 5.81079 30.8225 6.00471 30.8225 6.20433Z" fill="white"/>
<path d="M28.3443 5.76801C28.3329 5.61401 28.2987 5.46572 28.2417 5.32314C28.1903 5.18055 28.1162 5.05793 28.0192 4.95527C27.928 4.8469 27.8139 4.76135 27.677 4.69861C27.5459 4.63017 27.3976 4.59595 27.2322 4.59595C27.0611 4.59595 26.9042 4.62732 26.7616 4.69006C26.6248 4.74709 26.505 4.82979 26.4023 4.93816C26.3054 5.04082 26.2255 5.16344 26.1628 5.30603C26.1057 5.44861 26.0744 5.60261 26.0687 5.76801H28.3443ZM26.0687 6.40964C26.0687 6.58075 26.0915 6.74614 26.1371 6.90584C26.1884 7.06554 26.2626 7.20527 26.3595 7.32504C26.4565 7.44481 26.5791 7.54177 26.7274 7.61592C26.8757 7.68436 27.0525 7.71858 27.2578 7.71858C27.543 7.71858 27.7711 7.65869 27.9422 7.53892C28.1191 7.41345 28.2502 7.22808 28.3358 6.98284H29.2597C29.2084 7.22238 29.12 7.43626 28.9945 7.62447C28.8691 7.81269 28.7179 7.97238 28.5411 8.10356C28.3643 8.22904 28.1647 8.32314 27.9422 8.38588C27.7255 8.45432 27.4974 8.48854 27.2578 8.48854C26.9099 8.48854 26.6019 8.43151 26.3339 8.31744C26.0658 8.20337 25.8377 8.04367 25.6495 7.83835C25.467 7.63303 25.3272 7.38778 25.2303 7.10261C25.139 6.81744 25.0934 6.50375 25.0934 6.16154C25.0934 5.84785 25.1419 5.55128 25.2388 5.27181C25.3415 4.98664 25.4841 4.73854 25.6666 4.52751C25.8548 4.31078 26.0801 4.13968 26.3424 4.0142C26.6048 3.88873 26.9014 3.82599 27.2322 3.82599C27.5801 3.82599 27.8909 3.90013 28.1647 4.04842C28.4441 4.19101 28.6751 4.38207 28.8576 4.62162C29.0402 4.86116 29.1713 5.13778 29.2512 5.45147C29.3367 5.75945 29.3595 6.07884 29.3196 6.40964H26.0687Z" fill="white"/>
<path d="M19.4205 2.26041H22.3378C23.0108 2.26041 23.5156 2.40584 23.8521 2.69672C24.1886 2.98759 24.3568 3.39254 24.3568 3.91155C24.3568 4.20242 24.3141 4.44482 24.2285 4.63874C24.143 4.82695 24.0432 4.98094 23.9291 5.10071C23.815 5.21478 23.701 5.29748 23.5869 5.34881C23.4785 5.40014 23.3987 5.43436 23.3473 5.45147V5.46858C23.4386 5.47999 23.5356 5.50851 23.6382 5.55414C23.7466 5.59976 23.8464 5.67391 23.9376 5.77657C24.0289 5.87353 24.103 6.00186 24.1601 6.16155C24.2228 6.32125 24.2542 6.52087 24.2542 6.76041C24.2542 7.11973 24.2799 7.44767 24.3312 7.74425C24.3882 8.03513 24.4738 8.2433 24.5878 8.36878H23.4414C23.3616 8.2376 23.3131 8.09216 23.296 7.93247C23.2846 7.77277 23.2789 7.61878 23.2789 7.47049C23.2789 7.19102 23.2618 6.95148 23.2276 6.75186C23.1934 6.54653 23.1306 6.37828 23.0394 6.2471C22.9481 6.11022 22.8226 6.01041 22.6629 5.94767C22.5089 5.88494 22.3093 5.85357 22.0641 5.85357H20.4899V8.36878H19.4205V2.26041ZM20.4899 5.04083H22.2437C22.5859 5.04083 22.8454 4.96098 23.0222 4.80128C23.1991 4.63588 23.2875 4.39064 23.2875 4.06554C23.2875 3.87163 23.2589 3.71478 23.2019 3.59501C23.1449 3.46953 23.065 3.37258 22.9624 3.30413C22.8654 3.23569 22.7513 3.19007 22.6202 3.16725C22.4947 3.14444 22.3635 3.13303 22.2266 3.13303H20.4899V5.04083Z" fill="white"/>
<path d="M37.2686 14.7303C37.1704 14.7884 37.0341 14.8174 36.86 14.8174C36.7126 14.8174 36.5942 14.7772 36.5049 14.6968C36.42 14.612 36.3776 14.4757 36.3776 14.2882C36.2213 14.4757 36.0382 14.612 35.8282 14.6968C35.6228 14.7772 35.3995 14.8174 35.1583 14.8174C35.002 14.8174 34.8524 14.7995 34.7094 14.7638C34.571 14.7281 34.4504 14.6723 34.3477 14.5963C34.2449 14.5204 34.1623 14.4221 34.0998 14.3016C34.0417 14.1765 34.0127 14.0269 34.0127 13.8527C34.0127 13.6562 34.0462 13.4954 34.1132 13.3703C34.1802 13.2453 34.2673 13.1448 34.3745 13.0689C34.4861 12.9885 34.6112 12.9282 34.7496 12.888C34.8926 12.8478 35.0377 12.8143 35.1851 12.7875C35.3414 12.7562 35.4888 12.7339 35.6273 12.7205C35.7702 12.7026 35.8952 12.6803 36.0024 12.6535C36.1096 12.6222 36.1945 12.5798 36.257 12.5262C36.3195 12.4681 36.3508 12.3855 36.3508 12.2783C36.3508 12.1533 36.3262 12.0528 36.2771 11.9768C36.2324 11.9009 36.1722 11.8429 36.0962 11.8027C36.0248 11.7625 35.9421 11.7357 35.8483 11.7223C35.759 11.7089 35.6697 11.7022 35.5804 11.7022C35.3392 11.7022 35.1382 11.7491 34.9774 11.8429C34.8166 11.9322 34.7295 12.1041 34.7161 12.3587H34.1467C34.1556 12.1443 34.2003 11.9634 34.2807 11.8161C34.3611 11.6687 34.4683 11.5503 34.6022 11.461C34.7362 11.3672 34.8881 11.3002 35.0578 11.26C35.232 11.2198 35.4173 11.1997 35.6139 11.1997C35.7702 11.1997 35.9243 11.2109 36.0761 11.2332C36.2324 11.2555 36.3731 11.3024 36.4982 11.3739C36.6232 11.4409 36.7237 11.5369 36.7997 11.662C36.8756 11.787 36.9136 11.95 36.9136 12.151V13.9331C36.9136 14.0671 36.9203 14.1653 36.9337 14.2279C36.9515 14.2904 37.0051 14.3217 37.0944 14.3217C37.1436 14.3217 37.2016 14.3105 37.2686 14.2882V14.7303ZM36.3441 12.955C36.2726 13.0086 36.1789 13.0488 36.0627 13.0756C35.9466 13.0979 35.8238 13.118 35.6943 13.1358C35.5692 13.1492 35.4419 13.1671 35.3124 13.1894C35.1829 13.2073 35.0667 13.2386 34.964 13.2832C34.8613 13.3279 34.7764 13.3927 34.7094 13.4775C34.6469 13.5579 34.6156 13.6696 34.6156 13.8125C34.6156 13.9063 34.6335 13.9867 34.6692 14.0537C34.7094 14.1162 34.7586 14.1676 34.8166 14.2078C34.8792 14.248 34.9506 14.277 35.031 14.2949C35.1114 14.3127 35.1963 14.3217 35.2856 14.3217C35.4732 14.3217 35.634 14.2971 35.768 14.248C35.9019 14.1944 36.0114 14.1296 36.0962 14.0537C36.1811 13.9733 36.2436 13.8884 36.2838 13.7991C36.324 13.7053 36.3441 13.6182 36.3441 13.5378V12.955Z" fill="white"/>
<path d="M33.3181 10.6571H32.7487V9.96033H33.3181V10.6571ZM32.7487 11.2801H33.3181V14.7437H32.7487V11.2801Z" fill="white"/>
<path d="M29.1593 13.0421C29.1593 13.2029 29.1794 13.3614 29.2196 13.5177C29.2643 13.6696 29.3291 13.8058 29.4139 13.9264C29.5033 14.047 29.6149 14.143 29.7489 14.2145C29.8874 14.2859 30.0481 14.3217 30.2313 14.3217C30.4233 14.3217 30.5863 14.2837 30.7203 14.2078C30.8543 14.1319 30.9637 14.0336 31.0486 13.913C31.1335 13.7879 31.1937 13.6473 31.2295 13.4909C31.2697 13.3346 31.2898 13.1761 31.2898 13.0153C31.2898 12.8456 31.2697 12.6825 31.2295 12.5262C31.1893 12.3654 31.1245 12.2247 31.0352 12.1042C30.9503 11.9836 30.8387 11.8875 30.7002 11.8161C30.5618 11.7401 30.3943 11.7022 30.1978 11.7022C30.0057 11.7022 29.8427 11.7401 29.7087 11.8161C29.5747 11.892 29.4675 11.9925 29.3871 12.1175C29.3067 12.2426 29.2487 12.3855 29.2129 12.5463C29.1772 12.7071 29.1593 12.8724 29.1593 13.0421ZM31.8391 14.7437H31.2697V14.2748H31.2563C31.1625 14.4668 31.0151 14.6053 30.8141 14.6901C30.6131 14.775 30.392 14.8174 30.1509 14.8174C29.8829 14.8174 29.6484 14.7683 29.4474 14.67C29.2509 14.5718 29.0857 14.44 28.9517 14.2748C28.8221 14.1095 28.7239 13.9175 28.6569 13.6986C28.5899 13.4798 28.5564 13.2475 28.5564 13.0019C28.5564 12.7562 28.5877 12.524 28.6502 12.3051C28.7172 12.0863 28.8154 11.8965 28.945 11.7357C29.079 11.5704 29.2442 11.4409 29.4407 11.3471C29.6417 11.2489 29.874 11.1997 30.1375 11.1997C30.2268 11.1997 30.3228 11.2087 30.4255 11.2265C30.5283 11.2444 30.631 11.2757 30.7337 11.3203C30.8364 11.3605 30.9325 11.4163 31.0218 11.4878C31.1156 11.5548 31.1937 11.6397 31.2563 11.7424H31.2697V9.96033H31.8391V14.7437Z" fill="white"/>
<path d="M27.5508 12.6803C27.5418 12.5463 27.5106 12.419 27.457 12.2984C27.4078 12.1778 27.3386 12.0751 27.2493 11.9902C27.1644 11.9009 27.0617 11.8317 26.9411 11.7826C26.825 11.729 26.6955 11.7022 26.5525 11.7022C26.4051 11.7022 26.2712 11.729 26.1506 11.7826C26.0344 11.8317 25.934 11.9009 25.8491 11.9902C25.7642 12.0796 25.6972 12.1845 25.6481 12.3051C25.599 12.4212 25.57 12.5463 25.561 12.6803H27.5508ZM28.1001 13.645C28.0242 14.0336 27.8567 14.3261 27.5977 14.5226C27.3386 14.7192 27.0126 14.8174 26.6195 14.8174C26.3426 14.8174 26.1014 14.7727 25.896 14.6834C25.695 14.5941 25.5253 14.469 25.3868 14.3083C25.2484 14.1475 25.1434 13.9554 25.072 13.7321C25.005 13.5088 24.967 13.2654 24.9581 13.0019C24.9581 12.7383 24.9983 12.4972 25.0787 12.2783C25.1591 12.0595 25.2707 11.8697 25.4136 11.7089C25.561 11.5481 25.733 11.423 25.9295 11.3337C26.1305 11.2444 26.3493 11.1997 26.586 11.1997C26.8942 11.1997 27.1488 11.2645 27.3498 11.394C27.5552 11.519 27.7182 11.6798 27.8388 11.8764C27.9639 12.0729 28.0487 12.2873 28.0934 12.5195C28.1425 12.7517 28.1626 12.9728 28.1537 13.1827H25.561C25.5566 13.3346 25.5744 13.4798 25.6146 13.6182C25.6548 13.7522 25.7196 13.8728 25.8089 13.98C25.8982 14.0827 26.0121 14.1653 26.1506 14.2279C26.289 14.2904 26.452 14.3217 26.6396 14.3217C26.8808 14.3217 27.0773 14.2658 27.2292 14.1542C27.3855 14.0425 27.4882 13.8728 27.5374 13.645H28.1001Z" fill="white"/>
<path d="M19.4169 9.96033H20.2879L21.7952 13.98L23.3093 9.96033H24.1802V14.7437H23.5773V10.7643H23.5639L22.0699 14.7437H21.5273L20.0333 10.7643H20.0199V14.7437H19.4169V9.96033Z" fill="white"/>
<defs>
<filter id="filter0_dd_6339_31096" x="-12" y="0" width="38.8092" height="40.8232" filterUnits="userSpaceOnUse" color-interpolation-filters="sRGB">
<feFlood flood-opacity="0" result="BackgroundImageFix"/>
<feColorMatrix in="SourceAlpha" type="matrix" values="0 0 0 0 0 0 0 0 0 0 0 0 0 0 0 0 0 0 127 0" result="hardAlpha"/>
<feMorphology radius="2" operator="erode" in="SourceAlpha" result="effect1_dropShadow_6339_31096"/>
<feOffset dy="4"/>
<feGaussianBlur stdDeviation="3"/>
<feComposite in2="hardAlpha" operator="out"/>
<feColorMatrix type="matrix" values="0 0 0 0 0 0 0 0 0 0 0 0 0 0 0 0 0 0 0.03 0"/>
<feBlend mode="normal" in2="BackgroundImageFix" result="effect1_dropShadow_6339_31096"/>
<feColorMatrix in="SourceAlpha" type="matrix" values="0 0 0 0 0 0 0 0 0 0 0 0 0 0 0 0 0 0 127 0" result="hardAlpha"/>
<feMorphology radius="4" operator="erode" in="SourceAlpha" result="effect2_dropShadow_6339_31096"/>
<feOffset dy="12"/>
<feGaussianBlur stdDeviation="8"/>
<feComposite in2="hardAlpha" operator="out"/>
<feColorMatrix type="matrix" values="0 0 0 0 0 0 0 0 0 0 0 0 0 0 0 0 0 0 0.08 0"/>
<feBlend mode="normal" in2="effect1_dropShadow_6339_31096" result="effect2_dropShadow_6339_31096"/>
<feBlend mode="normal" in="SourceGraphic" in2="effect2_dropShadow_6339_31096" result="shape"/>
</filter>
</defs>
</svg>
